# File created by Blade
# Date/Time:  Thu Sep 25 18:39:44 2014
# Frame Rate: 120.000 fps
#------------------------------------------------------
:FULLY-SPECIFIED
:DEGREES
2120
root -1.303518 33.013221 -3.041982 6.499936 7.290220 -0.676568
Spine -11.713367 11.243070 -5.018838
Head -17.122349 -30.551816 30.463202
LeftShoulder 18.539612 10.211718 12.826185
LeftArm 48.776683 19.366030 -82.765164
LeftForeArm -56.168499 0.000000 124.234517
LeftHand -9.081354 -0.000000 -20.375393
LeftHandThumb1 -26.253704 0.000000 33.147579
RightShoulder 7.751856 25.462026 -32.516414
RightArm 109.913231 -24.900054 55.972405
RightForeArm 18.492725 -0.000000 123.353522
RightHand 0.669374 -0.000000 37.368890
RightHandThumb1 -24.326973 -0.000000 -32.862282
LeftUpLeg -1.836949 4.379696 2.650416
LeftLeg -0.508052 -0.000000 0.000000
LeftFoot -8.523590 -0.400623 -10.826397
LeftToeBase 10.094459 -0.000000 -0.000000
RightUpLeg -1.549815 -9.567550 1.063245
RightLeg 1.207886 -0.000000 -0.000000
RightFoot -8.263017 -2.996323 -0.214600
RightToeBase -0.345478 -0.000000 0.000000
2121
root -1.308730 33.012538 -3.039117 6.504558 7.272723 -0.671598
Spine -11.757546 11.325512 -5.055255
Head -17.047935 -30.725788 30.495753
LeftShoulder 18.499517 10.277963 12.724263
LeftArm 48.753299 19.340471 -82.725070
LeftForeArm -56.167515 -0.000000 124.224751
LeftHand -9.118061 -0.000000 -20.547358
LeftHandThumb1 -26.253704 0.000000 33.147579
RightShoulder 7.781469 25.643345 -32.541654
RightArm 109.725395 -25.133660 56.054790
RightForeArm 18.491291 -0.000000 123.369632
RightHand 0.597141 -0.000000 37.493431
RightHandThumb1 -24.326973 -0.000000 -32.862282
LeftUpLeg -1.839845 4.401357 2.655417
LeftLeg -0.491547 -0.000000 0.000000
LeftFoot -8.543023 -0.402800 -10.802559
LeftToeBase 10.077156 -0.000000 -0.000000
RightUpLeg -1.550737 -9.557266 1.065543
RightLeg 1.207065 -0.000000 -0.000000
RightFoot -8.271905 -2.981091 -0.235730
RightToeBase -0.318189 -0.000000 0.000000
2122
root -1.313433 33.012294 -3.036269 6.503551 7.255746 -0.668928
Spine -11.798264 11.400107 -5.083402
Head -16.969751 -30.893650 30.510425
LeftShoulder 18.447910 10.371733 12.615153
LeftArm 48.758676 19.312730 -82.637157
LeftForeArm -56.122182 -0.000000 124.222522
LeftHand -9.097535 -0.000000 -20.673277
LeftHandThumb1 -26.253704 0.000000 33.147579
RightShoulder 7.843574 25.757980 -32.526083
RightArm 109.653591 -25.287665 56.074272
RightForeArm 18.484149 -0.000000 123.345821
RightHand 0.563174 -0.000000 37.672811
RightHandThumb1 -24.326973 -0.000000 -32.862282
LeftUpLeg -1.839608 4.396329 2.661780
LeftLeg -0.476632 -0.000000 0.000000
LeftFoot -8.548679 -0.398468 -10.829503
LeftToeBase 10.079639 -0.000000 -0.000000
RightUpLeg -1.545685 -9.521165 1.070287
RightLeg 1.206261 -0.000000 -0.000000
RightFoot -8.285025 -3.003077 -0.238210
RightToeBase -0.273777 -0.000000 0.000000
2123
root -1.317488 33.011895 -3.033933 6.502024 7.253132 -0.661949
Spine -11.836984 11.485116 -5.125762
Head -16.899287 -31.079286 30.538964
LeftShoulder 18.442476 10.440975 12.536961
LeftArm 48.717241 19.240948 -82.610204
LeftForeArm -56.380747 -0.000000 124.204235
LeftHand -9.414691 -0.000000 -20.904352
LeftHandThumb1 -26.253704 0.000000 33.147579
RightShoulder 7.848707 25.738328 -32.497489
RightArm 109.617975 -25.379020 56.033113
RightForeArm 18.504719 -0.000000 123.325541
RightHand 0.527716 -0.000000 37.710562
RightHandThumb1 -24.326973 -0.000000 -32.862282
LeftUpLeg -1.838578 4.374535 2.660725
LeftLeg -0.466497 -0.000000 0.000000
LeftFoot -8.560681 -0.366038 -10.839275
LeftToeBase 10.068407 -0.000000 -0.000000
RightUpLeg -1.540105 -9.491962 1.067014
RightLeg 1.210592 -0.000000 -0.000000
RightFoot -8.314638 -2.999048 -0.163940
RightToeBase -0.226601 -0.000000 0.000000
2124
root -1.322485 33.011483 -3.031039 6.498434 7.254471 -0.657001
Spine -11.869200 11.561355 -5.160503
Head -16.835823 -31.252864 30.546262
LeftShoulder 18.423164 10.558654 12.454953
LeftArm 48.737661 19.215240 -82.478134
LeftForeArm -56.369077 -0.000000 124.215681
LeftHand -9.510620 0.000000 -20.916329
LeftHandThumb1 -26.253704 0.000000 33.147579
RightShoulder 7.874868 25.778429 -32.482969
RightArm 109.548093 -25.561999 56.055210
RightForeArm 18.540692 -0.000000 123.289581
RightHand 0.456995 -0.000000 37.858788
RightHandThumb1 -24.326973 -0.000000 -32.862282
LeftUpLeg -1.839349 4.368438 2.665112
LeftLeg -0.448166 -0.000000 0.000000
LeftFoot -8.569826 -0.367039 -10.835210
LeftToeBase 10.066551 -0.000000 -0.000000
RightUpLeg -1.537147 -9.481367 1.069865
RightLeg 1.221344 -0.000000 -0.000000
RightFoot -8.305286 -3.038594 -0.223716
RightToeBase -0.308902 -0.000000 0.000000
2125
root -1.326681 33.011183 -3.028675 6.490390 7.259159 -0.652497
Spine -11.893792 11.644864 -5.195708
Head -16.800229 -31.431796 30.561167
LeftShoulder 18.416523 10.641386 12.364866
LeftArm 48.713808 19.210407 -82.353710
LeftForeArm -56.336603 -0.000000 124.205592
LeftHand -9.330831 0.000000 -21.120071
LeftHandThumb1 -26.253704 0.000000 33.147579
RightShoulder 7.910074 25.823246 -32.463036
RightArm 109.461952 -25.696740 56.063390
RightForeArm 18.493279 0.000000 123.280285
RightHand 0.441924 -0.000000 37.911335
RightHandThumb1 -24.326973 -0.000000 -32.862282
LeftUpLeg -1.835612 4.356622 2.667914
LeftLeg -0.433703 -0.000000 0.000000
LeftFoot -8.568639 -0.351347 -10.816217
LeftToeBase 9.999036 -0.000000 -0.000000
RightUpLeg -1.524884 -9.473955 1.070438
RightLeg 1.225451 -0.000000 -0.000000
RightFoot -8.340358 -3.023775 -0.164841
RightToeBase -0.220812 -0.000000 0.000000
2126
root -1.331049 33.010825 -3.025220 6.479172 7.272312 -0.645283
Spine -11.916560 11.716421 -5.230479
Head -16.773060 -31.599585 30.568517
LeftShoulder 18.405442 10.759873 12.277090
LeftArm 48.744195 19.233854 -82.191009
LeftForeArm -56.250830 -0.000000 124.206074
LeftHand -9.338168 -0.000000 -20.963990
LeftHandThumb1 -26.253704 0.000000 33.147579
RightShoulder 7.907178 25.804695 -32.440107
RightArm 109.424701 -25.846526 56.062666
RightForeArm 18.451956 -0.000000 123.249466
RightHand 0.417515 -0.000000 37.995960
RightHandThumb1 -24.326973 -0.000000 -32.862282
LeftUpLeg -1.825531 4.337505 2.670507
LeftLeg -0.420040 -0.000000 0.000000
LeftFoot -8.589810 -0.341209 -10.833074
LeftToeBase 10.056736 -0.000000 -0.000000
RightUpLeg -1.505194 -9.457225 1.069499
RightLeg 1.223628 -0.000000 -0.000000
RightFoot -8.348580 -3.068400 -0.174339
RightToeBase -0.227687 -0.000000 0.000000
2127
root -1.335843 33.010536 -3.022835 6.469568 7.286316 -0.646619
Spine -11.932421 11.781103 -5.253960
Head -16.772541 -31.754346 30.580071
LeftShoulder 18.366745 10.866656 12.184663
LeftArm 48.769567 19.259300 -82.041752
LeftForeArm -56.117814 -0.000000 124.206847
LeftHand -9.446936 -0.000000 -20.880543
LeftHandThumb1 -26.253704 0.000000 33.147579
RightShoulder 7.927448 25.767019 -32.388439
RightArm 109.415666 -25.964709 56.045051
RightForeArm 18.374747 -0.000000 123.211277
RightHand 0.651264 0.000000 38.112968
RightHandThumb1 -24.326973 -0.000000 -32.862282
LeftUpLeg -1.818821 4.336528 2.679640
LeftLeg -0.410992 -0.000000 0.000000
LeftFoot -8.596373 -0.340308 -10.823672
LeftToeBase 10.053345 -0.000000 -0.000000
RightUpLeg -1.485651 -9.431538 1.077838
RightLeg 1.214314 -0.000000 -0.000000
RightFoot -8.361717 -3.114104 -0.172149
RightToeBase -0.156931 -0.000000 0.000000
2128
root -1.340974 33.010140 -3.019763 6.456961 7.304644 -0.646465
Spine -11.943430 11.847883 -5.292415
Head -16.805157 -31.891197 30.626730
LeftShoulder 18.323782 10.969948 12.169090
LeftArm 48.735858 19.253896 -81.995330
LeftForeArm -56.434643 -0.000000 124.166299
LeftHand -9.914883 0.000000 -20.932810
LeftHandThumb1 -26.253704 0.000000 33.147579
RightShoulder 7.947635 25.793564 -32.335908
RightArm 109.361306 -26.114973 56.061547
RightForeArm 18.313125 -0.000000 123.182445
RightHand 0.663011 -0.000000 38.173375
RightHandThumb1 -24.326973 -0.000000 -32.862282
LeftUpLeg -1.813453 4.339348 2.688914
LeftLeg -0.393123 -0.000000 0.000000
LeftFoot -8.598048 -0.353513 -10.828473
LeftToeBase 10.004370 -0.000000 -0.000000
RightUpLeg -1.466468 -9.452021 1.085537
RightLeg 1.209405 -0.000000 -0.000000
RightFoot -8.334290 -3.097178 -0.199568
RightToeBase -0.286903 -0.000000 0.000000
2129
root -1.344176 33.009802 -3.016243 6.445456 7.319881 -0.635601
Spine -11.956596 11.912510 -5.319745
Head -16.828634 -32.035214 30.594120
LeftShoulder 18.290270 11.124423 12.031711
LeftArm 48.792576 19.283418 -81.723257
LeftForeArm -56.018184 -0.000000 124.212182
LeftHand -9.394675 -0.000000 -20.920077
LeftHandThumb1 -26.253704 0.000000 33.147579
RightShoulder 7.955850 25.660508 -32.263114
RightArm 109.433018 -26.197383 55.992813
RightForeArm 18.272712 -0.000000 123.116958
RightHand 0.652599 -0.000000 38.231128
RightHandThumb1 -24.326973 -0.000000 -32.862282
LeftUpLeg -1.796851 4.331107 2.686076
LeftLeg -0.392847 -0.000000 0.000000
LeftFoot -8.603812 -0.350800 -10.800449
LeftToeBase 10.031621 -0.000000 -0.000000
RightUpLeg -1.443744 -9.473667 1.077137
RightLeg 1.209320 -0.000000 -0.000000
RightFoot -8.376098 -3.075980 -0.147330
RightToeBase -0.185832 -0.000000 0.000000
2130
root -1.348058 33.009693 -3.013095 6.434862 7.341452 -0.637202
Spine -11.966948 11.954082 -5.338248
Head -16.869868 -32.155942 30.598893
LeftShoulder 18.205750 11.297299 12.026709
LeftArm 48.808009 19.295394 -81.713971
LeftForeArm -56.311769 -0.000000 124.130675
LeftHand -9.455523 -0.000000 -21.296416
LeftHandThumb1 -26.253704 0.000000 33.147579
RightShoulder 7.996039 25.570289 -32.160363
RightArm 109.485415 -26.289358 55.927315
RightForeArm 18.220811 -0.000000 123.049759
RightHand 0.627130 -0.000000 38.320752
RightHandThumb1 -24.326973 -0.000000 -32.862282
LeftUpLeg -1.787759 4.328979 2.696910
LeftLeg -0.389375 -0.000000 0.000000
LeftFoot -8.605488 -0.371054 -10.815977
LeftToeBase 10.049147 -0.000000 -0.000000
RightUpLeg -1.432021 -9.482694 1.086741
RightLeg 1.219956 -0.000000 -0.000000
RightFoot -8.388002 -3.084513 -0.160083
RightToeBase -0.150166 -0.000000 0.000000
